<svg width="8394" height="13983" viewBox="0 0 8394 13983" fill="none" xmlns="http://www.w3.org/2000/svg">
<path d="M4500.94 5632.97C4388.77 5529.47 4242.23 5471.17 4089.61 5469.34C3936.99 5467.51 3789.1 5522.26 3674.48 5623.05L3622.61 5564.2C3751.77 5450.59 3918.44 5388.84 4090.44 5390.87C4262.45 5392.9 4427.61 5458.56 4554.06 5575.18L4500.94 5632.97Z" fill="#424447"/>
<path d="M4082.16 4962.35C4120.64 4962.35 4158.27 4973.77 4190.27 4995.15C4222.27 5016.53 4247.21 5046.93 4261.94 5082.48C4276.67 5118.04 4280.52 5157.17 4273.02 5194.92C4265.51 5232.67 4246.97 5267.34 4219.76 5294.55C4192.54 5321.77 4157.87 5340.3 4120.12 5347.81C4082.37 5355.32 4043.25 5351.47 4007.69 5336.74C3972.13 5322.01 3941.74 5297.07 3920.35 5265.07C3898.97 5233.06 3887.56 5195.44 3887.56 5156.95C3887.62 5105.36 3908.14 5055.9 3944.62 5019.42C3981.1 4982.94 4030.56 4962.42 4082.16 4962.35ZM4082.16 4883.89C4028.15 4883.89 3975.35 4899.9 3930.45 4929.91C3885.54 4959.91 3850.54 5002.56 3829.88 5052.45C3809.21 5102.35 3803.8 5157.26 3814.34 5210.23C3824.87 5263.2 3850.88 5311.85 3889.07 5350.04C3927.26 5388.23 3975.92 5414.24 4028.89 5424.77C4081.85 5435.31 4136.76 5429.9 4186.66 5409.23C4236.55 5388.57 4279.2 5353.57 4309.2 5308.66C4339.21 5263.76 4355.22 5210.96 4355.22 5156.95C4355.22 5084.53 4326.45 5015.08 4275.24 4963.87C4224.03 4912.66 4154.58 4883.89 4082.16 4883.89Z" fill="#424447"/>
<path d="M4086 4697.45C4189.15 4697.45 4289.98 4728.04 4375.75 4785.34C4461.51 4842.65 4528.36 4924.1 4567.83 5019.4C4607.31 5114.7 4617.63 5219.56 4597.51 5320.73C4577.39 5421.9 4527.72 5514.82 4454.78 5587.76C4381.84 5660.7 4288.91 5710.37 4187.75 5730.49C4086.58 5750.62 3981.72 5740.29 3886.42 5700.82C3791.12 5661.34 3709.67 5594.5 3652.36 5508.73C3595.05 5422.96 3564.47 5322.13 3564.47 5218.98C3564.62 5080.71 3619.62 4948.15 3717.39 4850.38C3815.17 4752.6 3947.73 4697.61 4086 4697.45ZM4086 4618.98C3967.33 4618.98 3851.33 4654.17 3752.66 4720.1C3653.99 4786.03 3577.08 4879.74 3531.67 4989.37C3486.26 5099.01 3474.38 5219.65 3497.53 5336.04C3520.68 5452.42 3577.82 5559.33 3661.74 5643.25C3745.65 5727.16 3852.56 5784.3 3968.95 5807.45C4085.34 5830.6 4205.97 5818.72 4315.61 5773.31C4425.25 5727.9 4518.95 5650.99 4584.88 5552.32C4650.81 5453.65 4686 5337.65 4686 5218.98C4686 5059.85 4622.79 4907.24 4510.27 4794.72C4397.74 4682.2 4245.13 4618.98 4086 4618.98Z" fill="#424447"/>
<path d="M3417.62 12235C3342.84 12166 3245.15 12127.1 3143.41 12125.9C3041.66 12124.7 2943.07 12161.2 2866.65 12228.4L2832.07 12189.1C2918.18 12113.4 3029.29 12072.2 3143.96 12073.6C3258.63 12074.9 3368.74 12118.7 3453.04 12196.5L3417.62 12235Z" fill="#424447"/>
<path d="M3138.44 11787.9C3164.1 11787.9 3189.18 11795.5 3210.51 11809.8C3231.85 11824 3248.48 11844.3 3258.29 11868C3268.11 11891.7 3270.68 11917.8 3265.68 11943C3260.67 11968.1 3248.32 11991.2 3230.17 12009.4C3212.03 12027.5 3188.91 12039.9 3163.75 12044.9C3138.58 12049.9 3112.5 12047.3 3088.79 12037.5C3065.09 12027.7 3044.82 12011.1 3030.57 11989.7C3016.31 11968.4 3008.71 11943.3 3008.71 11917.6C3008.75 11883.3 3022.43 11850.3 3046.75 11826C3071.07 11801.6 3104.04 11788 3138.44 11787.9ZM3138.44 11735.6C3102.43 11735.6 3067.24 11746.3 3037.3 11766.3C3007.36 11786.3 2984.03 11814.7 2970.25 11848C2956.47 11881.2 2952.87 11917.8 2959.89 11953.2C2966.92 11988.5 2984.25 12020.9 3009.71 12046.4C3035.17 12071.8 3067.61 12089.2 3102.92 12096.2C3138.24 12103.2 3174.84 12099.6 3208.1 12085.8C3241.37 12072.1 3269.8 12048.7 3289.8 12018.8C3309.8 11988.8 3320.48 11953.7 3320.48 11917.6C3320.48 11869.4 3301.3 11823.1 3267.16 11788.9C3233.02 11754.8 3186.72 11735.6 3138.44 11735.6Z" fill="#424447"/>
<path d="M3141 11611.3C3209.77 11611.3 3276.99 11631.7 3334.17 11669.9C3391.34 11708.1 3435.91 11762.4 3462.22 11825.9C3488.54 11889.5 3495.42 11959.4 3482.01 12026.8C3468.59 12094.3 3435.48 12156.2 3386.85 12204.9C3338.23 12253.5 3276.28 12286.6 3208.83 12300C3141.39 12313.4 3071.48 12306.5 3007.94 12280.2C2944.41 12253.9 2890.11 12209.3 2851.91 12152.2C2813.7 12095 2793.31 12027.8 2793.31 11959C2793.41 11866.8 2830.08 11778.4 2895.26 11713.3C2960.44 11648.1 3048.82 11611.4 3141 11611.3ZM3141 11559C3061.89 11559 2984.55 11582.5 2918.77 11626.4C2852.99 11670.4 2801.72 11732.8 2771.45 11805.9C2741.17 11879 2733.25 11959.4 2748.69 12037C2764.12 12114.6 2802.22 12185.9 2858.16 12241.8C2914.1 12297.8 2985.37 12335.9 3062.96 12351.3C3140.56 12366.7 3220.98 12358.8 3294.07 12328.6C3367.16 12298.3 3429.63 12247 3473.59 12181.2C3517.54 12115.4 3541 12038.1 3541 11959C3541 11852.9 3498.86 11751.2 3423.84 11676.2C3348.83 11601.1 3247.09 11559 3141 11559Z" fill="#424447"/>
<path d="M6834.62 13859C6759.84 13790 6662.15 13751.1 6560.41 13749.9C6458.66 13748.7 6360.07 13785.2 6283.65 13852.4L6249.07 13813.1C6335.18 13737.4 6446.29 13696.2 6560.96 13697.6C6675.63 13698.9 6785.74 13742.7 6870.04 13820.5L6834.62 13859Z" fill="#424447"/>
<path d="M6555.44 13411.9C6581.1 13411.9 6606.18 13419.5 6627.51 13433.8C6648.85 13448 6665.48 13468.3 6675.29 13492C6685.11 13515.7 6687.68 13541.8 6682.68 13567C6677.67 13592.1 6665.32 13615.2 6647.17 13633.4C6629.03 13651.5 6605.91 13663.9 6580.75 13668.9C6555.58 13673.9 6529.5 13671.3 6505.79 13661.5C6482.09 13651.7 6461.82 13635.1 6447.57 13613.7C6433.31 13592.4 6425.71 13567.3 6425.71 13541.6C6425.75 13507.3 6439.43 13474.3 6463.75 13450C6488.07 13425.6 6521.04 13412 6555.44 13411.9ZM6555.44 13359.6C6519.43 13359.6 6484.24 13370.3 6454.3 13390.3C6424.36 13410.3 6401.03 13438.7 6387.25 13472C6373.47 13505.2 6369.87 13541.8 6376.89 13577.2C6383.92 13612.5 6401.25 13644.9 6426.71 13670.4C6452.17 13695.8 6484.61 13713.2 6519.92 13720.2C6555.24 13727.2 6591.84 13723.6 6625.1 13709.8C6658.37 13696.1 6686.8 13672.7 6706.8 13642.8C6726.8 13612.8 6737.48 13577.7 6737.48 13541.6C6737.48 13493.4 6718.3 13447.1 6684.16 13412.9C6650.02 13378.8 6603.72 13359.6 6555.44 13359.6Z" fill="#424447"/>
<path d="M6558 13235.3C6626.77 13235.3 6693.99 13255.7 6751.17 13293.9C6808.34 13332.1 6852.91 13386.4 6879.22 13449.9C6905.54 13513.5 6912.42 13583.4 6899.01 13650.8C6885.59 13718.3 6852.48 13780.2 6803.85 13828.9C6755.23 13877.5 6693.28 13910.6 6625.83 13924C6558.39 13937.4 6488.48 13930.5 6424.94 13904.2C6361.41 13877.9 6307.11 13833.3 6268.91 13776.2C6230.7 13719 6210.31 13651.8 6210.31 13583C6210.41 13490.8 6247.08 13402.4 6312.26 13337.3C6377.44 13272.1 6465.82 13235.4 6558 13235.3ZM6558 13183C6478.89 13183 6401.55 13206.5 6335.77 13250.4C6269.99 13294.4 6218.72 13356.8 6188.45 13429.9C6158.17 13503 6150.25 13583.4 6165.69 13661C6181.12 13738.6 6219.22 13809.9 6275.16 13865.8C6331.1 13921.8 6402.37 13959.9 6479.96 13975.3C6557.56 13990.7 6637.98 13982.8 6711.07 13952.6C6784.16 13922.3 6846.63 13871 6890.59 13805.2C6934.54 13739.4 6958 13662.1 6958 13583C6958 13476.9 6915.86 13375.2 6840.84 13300.2C6765.83 13225.1 6664.09 13183 6558 13183Z" fill="#424447"/>
<path d="M2155.97 10005C2043.8 9901.48 1897.26 9843.19 1744.64 9841.35C1592.02 9839.52 1444.13 9894.28 1329.51 9995.06L1277.64 9936.21C1406.8 9822.6 1573.47 9760.86 1745.47 9762.88C1917.48 9764.91 2082.64 9830.57 2209.09 9947.2L2155.97 10005Z" fill="#424447"/>
<path d="M1737.19 9334.37C1775.67 9334.37 1813.3 9345.78 1845.3 9367.16C1877.3 9388.55 1902.24 9418.94 1916.97 9454.5C1931.7 9490.06 1935.55 9529.18 1928.05 9566.93C1920.54 9604.68 1902 9639.35 1874.79 9666.57C1847.57 9693.78 1812.9 9712.32 1775.15 9719.83C1737.4 9727.34 1698.28 9723.48 1662.72 9708.75C1627.16 9694.02 1596.77 9669.08 1575.38 9637.08C1554 9605.08 1542.59 9567.45 1542.59 9528.97C1542.65 9477.37 1563.17 9427.91 1599.65 9391.43C1636.13 9354.95 1685.59 9334.43 1737.19 9334.37ZM1737.19 9255.9C1683.18 9255.9 1630.38 9271.92 1585.48 9301.92C1540.57 9331.93 1505.57 9374.57 1484.91 9424.47C1464.24 9474.36 1458.83 9529.27 1469.37 9582.24C1479.9 9635.21 1505.91 9683.86 1544.1 9722.05C1582.29 9760.24 1630.95 9786.25 1683.92 9796.79C1736.88 9807.32 1791.79 9801.91 1841.69 9781.25C1891.58 9760.58 1934.23 9725.58 1964.23 9680.67C1994.24 9635.77 2010.25 9582.97 2010.25 9528.97C2010.25 9456.55 1981.48 9387.09 1930.27 9335.88C1879.06 9284.67 1809.61 9255.9 1737.19 9255.9Z" fill="#424447"/>
<path d="M1741.03 9069.46C1844.18 9069.46 1945.01 9100.05 2030.78 9157.36C2116.54 9214.66 2183.39 9296.12 2222.86 9391.41C2262.34 9486.71 2272.66 9591.57 2252.54 9692.74C2232.42 9793.91 2182.75 9886.84 2109.81 9959.78C2036.87 10032.7 1943.94 10082.4 1842.78 10102.5C1741.61 10122.6 1636.75 10112.3 1541.45 10072.8C1446.15 10033.4 1364.7 9966.51 1307.39 9880.74C1250.08 9794.98 1219.5 9694.15 1219.5 9591C1219.65 9452.72 1274.65 9320.16 1372.42 9222.39C1470.2 9124.62 1602.76 9069.62 1741.03 9069.46ZM1741.03 8991C1622.36 8991 1506.36 9026.19 1407.69 9092.11C1309.02 9158.04 1232.11 9251.75 1186.7 9361.39C1141.29 9471.02 1129.41 9591.66 1152.56 9708.05C1175.71 9824.44 1232.86 9931.35 1316.77 10015.3C1400.68 10099.2 1507.59 10156.3 1623.98 10179.5C1740.37 10202.6 1861 10190.7 1970.64 10145.3C2080.28 10099.9 2173.98 10023 2239.91 9924.34C2305.84 9825.67 2341.03 9709.66 2341.03 9591C2341.03 9431.87 2277.82 9279.25 2165.3 9166.73C2052.77 9054.21 1900.16 8991 1741.03 8991Z" fill="#424447"/>
<path d="M2019.62 13859C1944.84 13790 1847.15 13751.1 1745.41 13749.9C1643.66 13748.7 1545.07 13785.2 1468.65 13852.4L1434.07 13813.1C1520.18 13737.4 1631.29 13696.2 1745.96 13697.6C1860.63 13698.9 1970.74 13742.7 2055.04 13820.5L2019.62 13859Z" fill="#424447"/>
<path d="M1740.44 13411.9C1766.1 13411.9 1791.18 13419.5 1812.51 13433.8C1833.85 13448 1850.48 13468.3 1860.29 13492C1870.11 13515.7 1872.68 13541.8 1867.68 13567C1862.67 13592.1 1850.32 13615.2 1832.17 13633.4C1814.03 13651.5 1790.91 13663.9 1765.75 13668.9C1740.58 13673.9 1714.5 13671.3 1690.79 13661.5C1667.09 13651.7 1646.82 13635.1 1632.57 13613.7C1618.31 13592.4 1610.71 13567.3 1610.71 13541.6C1610.75 13507.3 1624.43 13474.3 1648.75 13450C1673.07 13425.6 1706.04 13412 1740.44 13411.9ZM1740.44 13359.6C1704.43 13359.6 1669.24 13370.3 1639.3 13390.3C1609.36 13410.3 1586.03 13438.7 1572.25 13472C1558.47 13505.2 1554.87 13541.8 1561.89 13577.2C1568.92 13612.5 1586.25 13644.9 1611.71 13670.4C1637.17 13695.8 1669.61 13713.2 1704.92 13720.2C1740.24 13727.2 1776.84 13723.6 1810.1 13709.8C1843.37 13696.1 1871.8 13672.7 1891.8 13642.8C1911.8 13612.8 1922.48 13577.7 1922.48 13541.6C1922.48 13493.4 1903.3 13447.1 1869.16 13412.9C1835.02 13378.8 1788.72 13359.6 1740.44 13359.6Z" fill="#424447"/>
<path d="M1743 13235.3C1811.77 13235.3 1878.99 13255.7 1936.17 13293.9C1993.34 13332.1 2037.91 13386.4 2064.22 13449.9C2090.54 13513.5 2097.42 13583.4 2084.01 13650.8C2070.59 13718.3 2037.48 13780.2 1988.85 13828.9C1940.23 13877.5 1878.28 13910.6 1810.83 13924C1743.39 13937.4 1673.48 13930.5 1609.94 13904.2C1546.41 13877.9 1492.11 13833.3 1453.91 13776.2C1415.7 13719 1395.31 13651.8 1395.31 13583C1395.41 13490.8 1432.08 13402.4 1497.26 13337.3C1562.44 13272.1 1650.82 13235.4 1743 13235.3ZM1743 13183C1663.89 13183 1586.55 13206.5 1520.77 13250.4C1454.99 13294.4 1403.72 13356.8 1373.45 13429.9C1343.17 13503 1335.25 13583.4 1350.69 13661C1366.12 13738.6 1404.22 13809.9 1460.16 13865.8C1516.1 13921.8 1587.37 13959.9 1664.96 13975.3C1742.56 13990.7 1822.98 13982.8 1896.07 13952.6C1969.16 13922.3 2031.63 13871 2075.59 13805.2C2119.54 13739.4 2143 13662.1 2143 13583C2143 13476.9 2100.86 13375.2 2025.84 13300.2C1950.83 13225.1 1849.09 13183 1743 13183Z" fill="#424447"/>
<path d="M8270.62 12195C8195.84 12126 8098.15 12087.1 7996.41 12085.9C7894.66 12084.7 7796.07 12121.2 7719.65 12188.4L7685.07 12149.1C7771.18 12073.4 7882.29 12032.2 7996.96 12033.6C8111.63 12034.9 8221.74 12078.7 8306.04 12156.5L8270.62 12195Z" fill="#424447"/>
<path d="M7991.44 11747.9C8017.1 11747.9 8042.18 11755.5 8063.51 11769.8C8084.85 11784 8101.48 11804.3 8111.29 11828C8121.11 11851.7 8123.68 11877.8 8118.68 11903C8113.67 11928.1 8101.32 11951.2 8083.17 11969.4C8065.03 11987.5 8041.91 11999.9 8016.75 12004.9C7991.58 12009.9 7965.5 12007.3 7941.79 11997.5C7918.09 11987.7 7897.82 11971.1 7883.57 11949.7C7869.31 11928.4 7861.71 11903.3 7861.71 11877.6C7861.75 11843.3 7875.43 11810.3 7899.75 11786C7924.07 11761.6 7957.04 11748 7991.44 11747.9ZM7991.44 11695.6C7955.43 11695.6 7920.24 11706.3 7890.3 11726.3C7860.36 11746.3 7837.03 11774.7 7823.25 11808C7809.47 11841.2 7805.87 11877.8 7812.89 11913.2C7819.92 11948.5 7837.25 11980.9 7862.71 12006.4C7888.17 12031.8 7920.61 12049.2 7955.92 12056.2C7991.24 12063.2 8027.84 12059.6 8061.1 12045.8C8094.37 12032.1 8122.8 12008.7 8142.8 11978.8C8162.8 11948.8 8173.48 11913.7 8173.48 11877.6C8173.48 11829.4 8154.3 11783.1 8120.16 11748.9C8086.02 11714.8 8039.72 11695.6 7991.44 11695.6Z" fill="#424447"/>
<path d="M7994 11571.3C8062.77 11571.3 8129.99 11591.7 8187.17 11629.9C8244.34 11668.1 8288.91 11722.4 8315.22 11785.9C8341.54 11849.5 8348.42 11919.4 8335.01 11986.8C8321.59 12054.3 8288.48 12116.2 8239.85 12164.9C8191.23 12213.5 8129.28 12246.6 8061.83 12260C7994.39 12273.4 7924.48 12266.5 7860.94 12240.2C7797.41 12213.9 7743.11 12169.3 7704.91 12112.2C7666.7 12055 7646.31 11987.8 7646.31 11919C7646.41 11826.8 7683.08 11738.4 7748.26 11673.3C7813.44 11608.1 7901.82 11571.4 7994 11571.3ZM7994 11519C7914.89 11519 7837.55 11542.5 7771.77 11586.4C7705.99 11630.4 7654.72 11692.8 7624.45 11765.9C7594.17 11839 7586.25 11919.4 7601.69 11997C7617.12 12074.6 7655.22 12145.9 7711.16 12201.8C7767.1 12257.8 7838.37 12295.9 7915.96 12311.3C7993.56 12326.7 8073.98 12318.8 8147.07 12288.6C8220.16 12258.3 8282.63 12207 8326.59 12141.2C8370.54 12075.4 8394 11998.1 8394 11919C8394 11812.9 8351.86 11711.2 8276.84 11636.2C8201.83 11561.1 8100.09 11519 7994 11519Z" fill="#424447"/>
<line opacity="0.6" x1="1727.86" y1="9023.49" x2="3664.82" y2="5504.77" stroke="#424447" stroke-width="30"/>
<line x1="5223.03" y1="11551.5" x2="6155.03" y2="9947.46" stroke="#424447" stroke-width="30"/>
<line x1="2293.03" y1="9576" x2="6042.03" y2="9576" stroke="#424447" stroke-width="30"/>
<line opacity="0.6" x1="4567.02" y1="5569.48" x2="6575.33" y2="9047.98" stroke="#424447" stroke-width="30"/>
<path d="M6976.97 10005C6864.8 9901.48 6718.26 9843.19 6565.64 9841.35C6413.02 9839.52 6265.13 9894.28 6150.51 9995.06L6098.64 9936.21C6227.8 9822.6 6394.47 9760.86 6566.47 9762.88C6738.48 9764.91 6903.64 9830.57 7030.09 9947.2L6976.97 10005Z" fill="#424447"/>
<path d="M6558.19 9334.37C6596.67 9334.37 6634.3 9345.78 6666.3 9367.16C6698.3 9388.55 6723.24 9418.94 6737.97 9454.5C6752.7 9490.06 6756.55 9529.18 6749.05 9566.93C6741.54 9604.68 6723 9639.35 6695.79 9666.57C6668.57 9693.78 6633.9 9712.32 6596.15 9719.83C6558.4 9727.34 6519.28 9723.48 6483.72 9708.75C6448.16 9694.02 6417.77 9669.08 6396.38 9637.08C6375 9605.08 6363.59 9567.45 6363.59 9528.97C6363.65 9477.37 6384.17 9427.91 6420.65 9391.43C6457.13 9354.95 6506.59 9334.43 6558.19 9334.37ZM6558.19 9255.9C6504.18 9255.9 6451.38 9271.92 6406.48 9301.92C6361.57 9331.93 6326.57 9374.57 6305.91 9424.47C6285.24 9474.36 6279.83 9529.27 6290.37 9582.24C6300.9 9635.21 6326.91 9683.86 6365.1 9722.05C6403.29 9760.24 6451.95 9786.25 6504.92 9796.79C6557.88 9807.32 6612.79 9801.91 6662.69 9781.25C6712.58 9760.58 6755.23 9725.58 6785.23 9680.67C6815.24 9635.77 6831.25 9582.97 6831.25 9528.97C6831.25 9456.55 6802.48 9387.09 6751.27 9335.88C6700.06 9284.67 6630.61 9255.9 6558.19 9255.9Z" fill="#424447"/>
<path d="M6562.03 9069.46C6665.18 9069.46 6766.01 9100.05 6851.78 9157.36C6937.54 9214.66 7004.39 9296.12 7043.86 9391.41C7083.34 9486.71 7093.66 9591.57 7073.54 9692.74C7053.42 9793.91 7003.75 9886.84 6930.81 9959.78C6857.87 10032.7 6764.94 10082.4 6663.78 10102.5C6562.61 10122.6 6457.75 10112.3 6362.45 10072.8C6267.15 10033.4 6185.7 9966.51 6128.39 9880.74C6071.08 9794.98 6040.5 9694.15 6040.5 9591C6040.65 9452.72 6095.65 9320.16 6193.42 9222.39C6291.2 9124.62 6423.76 9069.62 6562.03 9069.46ZM6562.03 8991C6443.36 8991 6327.36 9026.19 6228.69 9092.11C6130.02 9158.04 6053.11 9251.75 6007.7 9361.39C5962.29 9471.02 5950.41 9591.66 5973.56 9708.05C5996.71 9824.44 6053.86 9931.35 6137.77 10015.3C6221.68 10099.2 6328.59 10156.3 6444.98 10179.5C6561.37 10202.6 6682 10190.7 6791.64 10145.3C6901.28 10099.9 6994.98 10023 7060.91 9924.34C7126.84 9825.67 7162.03 9709.66 7162.03 9591C7162.03 9431.87 7098.82 9279.25 6986.3 9166.73C6873.77 9054.21 6721.16 8991 6562.03 8991Z" fill="#424447"/>
<path d="M5515.62 12195C5440.84 12126 5343.15 12087.1 5241.41 12085.9C5139.66 12084.7 5041.07 12121.2 4964.65 12188.4L4930.07 12149.1C5016.18 12073.4 5127.29 12032.2 5241.96 12033.6C5356.63 12034.9 5466.74 12078.7 5551.04 12156.5L5515.62 12195Z" fill="#424447"/>
<path d="M5236.44 11747.9C5262.1 11747.9 5287.18 11755.5 5308.51 11769.8C5329.85 11784 5346.48 11804.3 5356.29 11828C5366.11 11851.7 5368.68 11877.8 5363.68 11903C5358.67 11928.1 5346.32 11951.2 5328.17 11969.4C5310.03 11987.5 5286.91 11999.9 5261.75 12004.9C5236.58 12009.9 5210.5 12007.3 5186.79 11997.5C5163.09 11987.7 5142.82 11971.1 5128.57 11949.7C5114.31 11928.4 5106.71 11903.3 5106.71 11877.6C5106.75 11843.3 5120.43 11810.3 5144.75 11786C5169.07 11761.6 5202.04 11748 5236.44 11747.9ZM5236.44 11695.6C5200.43 11695.6 5165.24 11706.3 5135.3 11726.3C5105.36 11746.3 5082.03 11774.7 5068.25 11808C5054.47 11841.2 5050.87 11877.8 5057.89 11913.2C5064.92 11948.5 5082.25 11980.9 5107.71 12006.4C5133.17 12031.8 5165.61 12049.2 5200.92 12056.2C5236.24 12063.2 5272.84 12059.6 5306.1 12045.8C5339.37 12032.1 5367.8 12008.7 5387.8 11978.8C5407.8 11948.8 5418.48 11913.7 5418.48 11877.6C5418.48 11829.4 5399.3 11783.1 5365.16 11748.9C5331.02 11714.8 5284.72 11695.6 5236.44 11695.6Z" fill="#424447"/>
<path d="M5239 11571.3C5307.77 11571.3 5374.99 11591.7 5432.17 11629.9C5489.34 11668.1 5533.91 11722.4 5560.22 11785.9C5586.54 11849.5 5593.42 11919.4 5580.01 11986.8C5566.59 12054.3 5533.48 12116.2 5484.85 12164.9C5436.23 12213.5 5374.28 12246.6 5306.83 12260C5239.39 12273.4 5169.48 12266.5 5105.94 12240.2C5042.41 12213.9 4988.11 12169.3 4949.91 12112.2C4911.7 12055 4891.31 11987.8 4891.31 11919C4891.41 11826.8 4928.08 11738.4 4993.26 11673.3C5058.44 11608.1 5146.82 11571.4 5239 11571.3ZM5239 11519C5159.89 11519 5082.55 11542.5 5016.77 11586.4C4950.99 11630.4 4899.72 11692.8 4869.45 11765.9C4839.17 11839 4831.25 11919.4 4846.69 11997C4862.12 12074.6 4900.22 12145.9 4956.16 12201.8C5012.1 12257.8 5083.37 12295.9 5160.96 12311.3C5238.56 12326.7 5318.98 12318.8 5392.07 12288.6C5465.16 12258.3 5527.63 12207 5571.59 12141.2C5615.54 12075.4 5639 11998.1 5639 11919C5639 11812.9 5596.86 11711.2 5521.84 11636.2C5446.83 11561.1 5345.09 11519 5239 11519Z" fill="#424447"/>
<line x1="6970.97" y1="9947.46" x2="7903.01" y2="11551.4" stroke="#424447" stroke-width="30"/>
<line x1="6549" y1="13231" x2="6549" y2="10135" stroke="#424447" stroke-width="30"/>
<line x1="387.03" y1="11601.5" x2="1319.03" y2="9997.46" stroke="#424447" stroke-width="30"/>
<line x1="2221.97" y1="9997.46" x2="3154.01" y2="11601.4" stroke="#424447" stroke-width="30"/>
<line x1="1722" y1="13231" x2="1722" y2="10135" stroke="#424447" stroke-width="30"/>
<path d="M676.624 12235C601.844 12166 504.155 12127.1 402.408 12125.9C300.662 12124.7 202.069 12161.2 125.653 12228.4L91.0742 12189.1C177.183 12113.4 288.291 12072.2 402.962 12073.6C517.633 12074.9 627.74 12118.7 712.039 12196.5L676.624 12235Z" fill="#424447"/>
<path d="M397.437 11787.9C423.096 11787.9 448.178 11795.5 469.512 11809.8C490.847 11824 507.475 11844.3 517.295 11868C527.114 11891.7 529.682 11917.8 524.676 11943C519.671 11968.1 507.315 11991.2 489.172 12009.4C471.029 12027.5 447.912 12039.9 422.747 12044.9C397.581 12049.9 371.497 12047.3 347.791 12037.5C324.086 12027.7 303.824 12011.1 289.568 11989.7C275.313 11968.4 267.705 11943.3 267.705 11917.6C267.747 11883.3 281.427 11850.3 305.748 11826C330.069 11801.6 363.042 11788 397.437 11787.9ZM397.437 11735.6C361.432 11735.6 326.236 11746.3 296.299 11766.3C266.362 11786.3 243.029 11814.7 229.251 11848C215.472 11881.2 211.867 11917.8 218.892 11953.2C225.916 11988.5 243.253 12020.9 268.713 12046.4C294.172 12071.8 326.61 12089.2 361.923 12096.2C397.236 12103.2 433.839 12099.6 467.103 12085.8C500.367 12072.1 528.798 12048.7 548.802 12018.8C568.805 11988.8 579.482 11953.7 579.482 11917.6C579.482 11869.4 560.301 11823.1 526.161 11788.9C492.021 11754.8 445.718 11735.6 397.437 11735.6Z" fill="#424447"/>
<path d="M400 11611.3C468.767 11611.3 535.988 11631.7 593.166 11669.9C650.343 11708.1 694.907 11762.4 721.222 11825.9C747.538 11889.5 754.423 11959.4 741.007 12026.8C727.591 12094.3 694.477 12156.2 645.852 12204.9C597.227 12253.5 535.276 12286.6 467.831 12300C400.386 12313.4 330.477 12306.5 266.945 12280.2C203.413 12253.9 149.112 12209.3 110.908 12152.2C72.7031 12095 52.311 12027.8 52.311 11959C52.4148 11866.8 89.0798 11778.4 154.262 11713.3C219.443 11648.1 307.819 11611.4 400 11611.3ZM400 11559C320.888 11559 243.552 11582.5 177.772 11626.4C111.992 11670.4 60.723 11732.8 30.448 11805.9C0.172919 11879 -7.74788 11959.4 7.68621 12037C23.1203 12114.6 61.2166 12185.9 117.158 12241.8C173.099 12297.8 244.372 12335.9 321.964 12351.3C399.556 12366.7 479.983 12358.8 553.073 12328.6C626.163 12298.3 688.635 12247 732.587 12181.2C776.54 12115.4 799.999 12038.1 799.999 11959C799.999 11852.9 757.857 11751.2 682.843 11676.2C607.828 11601.1 506.087 11559 400 11559Z" fill="#424447"/>
<line x1="876.731" y1="1781.5" x2="3801.77" y2="4776.48" stroke="#424447" stroke-width="30"/>
<line x1="4344.27" y1="4776.64" x2="7269.14" y2="1781.5" stroke="#424447" stroke-width="30"/>
<line x1="4067" y1="4619" x2="4067" y2="800" stroke="#424447" stroke-width="30"/>
<path d="M4364.62 675.996C4289.84 606.99 4192.15 568.127 4090.41 566.905C3988.66 565.683 3890.07 602.189 3813.65 669.379L3779.07 630.145C3865.18 554.405 3976.29 513.24 4090.96 514.593C4205.63 515.945 4315.74 559.719 4400.04 637.469L4364.62 675.996Z" fill="#424447"/>
<path d="M4085.44 228.915C4111.1 228.915 4136.18 236.524 4157.51 250.779C4178.85 265.034 4195.48 285.296 4205.29 309.001C4215.11 332.707 4217.68 358.792 4212.68 383.957C4207.67 409.123 4195.32 432.239 4177.17 450.382C4159.03 468.526 4135.91 480.882 4110.75 485.888C4085.58 490.893 4059.5 488.324 4035.79 478.505C4012.09 468.686 3991.82 452.058 3977.57 430.723C3963.31 409.389 3955.71 384.306 3955.71 358.648C3955.75 324.253 3969.43 291.28 3993.75 266.959C4018.07 242.638 4051.04 228.957 4085.44 228.915ZM4085.44 176.604C4049.43 176.604 4014.24 187.28 3984.3 207.284C3954.36 227.287 3931.03 255.718 3917.25 288.982C3903.47 322.247 3899.87 358.85 3906.89 394.163C3913.92 429.476 3931.25 461.913 3956.71 487.372C3982.17 512.832 4014.61 530.17 4049.92 537.194C4085.24 544.218 4121.84 540.613 4155.1 526.835C4188.37 513.056 4216.8 489.723 4236.8 459.786C4256.8 429.849 4267.48 394.653 4267.48 358.648C4267.48 310.367 4248.3 264.063 4214.16 229.923C4180.02 195.783 4133.72 176.604 4085.44 176.604Z" fill="#424447"/>
<path d="M4088 52.3115C4156.77 52.3115 4223.99 72.7032 4281.17 110.908C4338.34 149.112 4382.91 203.414 4409.22 266.945C4435.54 330.477 4442.42 400.386 4429.01 467.831C4415.59 535.276 4382.48 597.228 4333.85 645.853C4285.23 694.478 4223.28 727.592 4155.83 741.008C4088.39 754.423 4018.48 747.538 3954.94 721.223C3891.41 694.907 3837.11 650.343 3798.91 593.166C3760.7 535.989 3740.31 468.766 3740.31 400C3740.41 307.819 3777.08 219.444 3842.26 154.262C3907.44 89.0804 3995.82 52.4154 4088 52.3115ZM4088 0C4008.89 0 3931.55 23.4599 3865.77 67.4125C3799.99 111.365 3748.72 173.836 3718.45 246.927C3688.17 320.017 3680.25 400.444 3695.69 478.036C3711.12 555.629 3749.22 626.902 3805.16 682.843C3861.1 738.784 3932.37 776.88 4009.96 792.314C4087.56 807.748 4167.98 799.827 4241.07 769.552C4314.16 739.277 4376.63 688.008 4420.59 622.228C4464.54 556.448 4488 479.113 4488 400C4488 293.913 4445.86 192.172 4370.84 117.157C4295.83 42.1428 4194.09 0 4088 0Z" fill="#424447"/>
<path d="M1142.62 1668C1067.84 1598.99 970.155 1560.13 868.408 1558.9C766.662 1557.68 668.069 1594.19 591.653 1661.38L557.074 1622.14C643.183 1546.41 754.291 1505.24 868.962 1506.59C983.633 1507.95 1093.74 1551.72 1178.04 1629.47L1142.62 1668Z" fill="#424447"/>
<path d="M863.437 1220.92C889.096 1220.92 914.178 1228.52 935.512 1242.78C956.847 1257.03 973.475 1277.3 983.295 1301C993.114 1324.71 995.682 1350.79 990.676 1375.96C985.671 1401.12 973.315 1424.24 955.172 1442.38C937.029 1460.53 913.912 1472.88 888.747 1477.89C863.581 1482.89 837.497 1480.32 813.791 1470.51C790.086 1460.69 769.824 1444.06 755.568 1422.72C741.313 1401.39 733.705 1376.31 733.705 1350.65C733.747 1316.25 747.427 1283.28 771.748 1258.96C796.069 1234.64 829.042 1220.96 863.437 1220.92ZM863.437 1168.6C827.432 1168.6 792.236 1179.28 762.299 1199.28C732.362 1219.29 709.029 1247.72 695.251 1280.98C681.472 1314.25 677.867 1350.85 684.892 1386.16C691.916 1421.48 709.253 1453.91 734.713 1479.37C760.172 1504.83 792.61 1522.17 827.923 1529.19C863.236 1536.22 899.839 1532.61 933.103 1518.83C966.367 1505.06 994.798 1481.72 1014.8 1451.79C1034.8 1421.85 1045.48 1386.65 1045.48 1350.65C1045.48 1302.37 1026.3 1256.06 992.161 1221.92C958.021 1187.78 911.718 1168.6 863.437 1168.6Z" fill="#424447"/>
<path d="M866 1044.31C934.767 1044.31 1001.99 1064.7 1059.17 1102.91C1116.34 1141.11 1160.91 1195.41 1187.22 1258.95C1213.54 1322.48 1220.42 1392.39 1207.01 1459.83C1193.59 1527.28 1160.48 1589.23 1111.85 1637.85C1063.23 1686.48 1001.28 1719.59 933.831 1733.01C866.386 1746.42 796.477 1739.54 732.945 1713.22C669.413 1686.91 615.112 1642.34 576.908 1585.17C538.703 1527.99 518.311 1460.77 518.311 1392C518.415 1299.82 555.08 1211.44 620.262 1146.26C685.443 1081.08 773.819 1044.42 866 1044.31ZM866 992C786.888 992 709.552 1015.46 643.772 1059.41C577.992 1103.37 526.723 1165.84 496.448 1238.93C466.173 1312.02 458.252 1392.44 473.686 1470.04C489.12 1547.63 527.217 1618.9 583.158 1674.84C639.099 1730.78 710.372 1768.88 787.964 1784.31C865.556 1799.75 945.983 1791.83 1019.07 1761.55C1092.16 1731.28 1154.63 1680.01 1198.59 1614.23C1242.54 1548.45 1266 1471.11 1266 1392C1266 1285.91 1223.86 1184.17 1148.84 1109.16C1073.83 1034.14 972.087 992 866 992Z" fill="#424447"/>
<path d="M7561.62 1668C7486.84 1598.99 7389.15 1560.13 7287.41 1558.9C7185.66 1557.68 7087.07 1594.19 7010.65 1661.38L6976.07 1622.14C7062.18 1546.41 7173.29 1505.24 7287.96 1506.59C7402.63 1507.95 7512.74 1551.72 7597.04 1629.47L7561.62 1668Z" fill="#424447"/>
<path d="M7282.44 1220.92C7308.1 1220.92 7333.18 1228.52 7354.51 1242.78C7375.85 1257.03 7392.48 1277.3 7402.29 1301C7412.11 1324.71 7414.68 1350.79 7409.68 1375.96C7404.67 1401.12 7392.32 1424.24 7374.17 1442.38C7356.03 1460.53 7332.91 1472.88 7307.75 1477.89C7282.58 1482.89 7256.5 1480.32 7232.79 1470.51C7209.09 1460.69 7188.82 1444.06 7174.57 1422.72C7160.31 1401.39 7152.71 1376.31 7152.71 1350.65C7152.75 1316.25 7166.43 1283.28 7190.75 1258.96C7215.07 1234.64 7248.04 1220.96 7282.44 1220.92ZM7282.44 1168.6C7246.43 1168.6 7211.24 1179.28 7181.3 1199.28C7151.36 1219.29 7128.03 1247.72 7114.25 1280.98C7100.47 1314.25 7096.87 1350.85 7103.89 1386.16C7110.92 1421.48 7128.25 1453.91 7153.71 1479.37C7179.17 1504.83 7211.61 1522.17 7246.92 1529.19C7282.24 1536.22 7318.84 1532.61 7352.1 1518.83C7385.37 1505.06 7413.8 1481.72 7433.8 1451.79C7453.8 1421.85 7464.48 1386.65 7464.48 1350.65C7464.48 1302.37 7445.3 1256.06 7411.16 1221.92C7377.02 1187.78 7330.72 1168.6 7282.44 1168.6Z" fill="#424447"/>
<path d="M7285 1044.31C7353.77 1044.31 7420.99 1064.7 7478.17 1102.91C7535.34 1141.11 7579.91 1195.41 7606.22 1258.95C7632.54 1322.48 7639.42 1392.39 7626.01 1459.83C7612.59 1527.28 7579.48 1589.23 7530.85 1637.85C7482.23 1686.48 7420.28 1719.59 7352.83 1733.01C7285.39 1746.42 7215.48 1739.54 7151.94 1713.22C7088.41 1686.91 7034.11 1642.34 6995.91 1585.17C6957.7 1527.99 6937.31 1460.77 6937.31 1392C6937.41 1299.82 6974.08 1211.44 7039.26 1146.26C7104.44 1081.08 7192.82 1044.42 7285 1044.31ZM7285 992C7205.89 992 7128.55 1015.46 7062.77 1059.41C6996.99 1103.37 6945.72 1165.84 6915.45 1238.93C6885.17 1312.02 6877.25 1392.44 6892.69 1470.04C6908.12 1547.63 6946.22 1618.9 7002.16 1674.84C7058.1 1730.78 7129.37 1768.88 7206.96 1784.31C7284.56 1799.75 7364.98 1791.83 7438.07 1761.55C7511.16 1731.28 7573.63 1680.01 7617.59 1614.23C7661.54 1548.45 7685 1471.11 7685 1392C7685 1285.91 7642.86 1184.17 7567.84 1109.16C7492.83 1034.14 7391.09 992 7285 992Z" fill="#424447"/>
</svg>
