<svg width="17272" height="9184" viewBox="0 0 17272 9184" fill="none" xmlns="http://www.w3.org/2000/svg">
<path d="M9047.94 1813.99C8935.77 1710.48 8789.23 1652.19 8636.61 1650.36C8483.99 1648.52 8336.1 1703.28 8221.48 1804.07L8169.61 1745.22C8298.77 1631.61 8465.44 1569.86 8637.44 1571.89C8809.45 1573.92 8974.61 1639.58 9101.06 1756.2L9047.94 1813.99Z" fill="#424447"/>
<path d="M8629.16 1143.37C8667.64 1143.37 8705.27 1154.79 8737.27 1176.17C8769.27 1197.55 8794.21 1227.94 8808.94 1263.5C8823.67 1299.06 8827.52 1338.19 8820.02 1375.94C8812.51 1413.68 8793.97 1448.36 8766.76 1475.57C8739.54 1502.79 8704.87 1521.32 8667.12 1528.83C8629.37 1536.34 8590.25 1532.49 8554.69 1517.76C8519.13 1503.03 8488.74 1478.09 8467.35 1446.08C8445.97 1414.08 8434.56 1376.46 8434.56 1337.97C8434.62 1286.38 8455.14 1236.92 8491.62 1200.44C8528.1 1163.96 8577.56 1143.43 8629.16 1143.37ZM8629.16 1064.91C8575.15 1064.91 8522.35 1080.92 8477.45 1110.93C8432.54 1140.93 8397.54 1183.58 8376.88 1233.47C8356.21 1283.37 8350.8 1338.27 8361.34 1391.24C8371.87 1444.21 8397.88 1492.87 8436.07 1531.06C8474.26 1569.25 8522.92 1595.25 8575.88 1605.79C8628.85 1616.33 8683.76 1610.92 8733.66 1590.25C8783.55 1569.58 8826.2 1534.58 8856.2 1489.68C8886.21 1444.77 8902.22 1391.98 8902.22 1337.97C8902.22 1265.55 8873.45 1196.09 8822.24 1144.88C8771.03 1093.67 8701.58 1064.91 8629.16 1064.91Z" fill="#424447"/>
<path d="M8633 878.467C8736.15 878.467 8836.98 909.055 8922.75 966.362C9008.51 1023.67 9075.36 1105.12 9114.83 1200.42C9154.31 1295.72 9164.63 1400.58 9144.51 1501.75C9124.39 1602.91 9074.72 1695.84 9001.78 1768.78C8928.84 1841.72 8835.91 1891.39 8734.75 1911.51C8633.58 1931.63 8528.72 1921.31 8433.42 1881.83C8338.12 1842.36 8256.67 1775.51 8199.36 1689.75C8142.05 1603.98 8111.47 1503.15 8111.47 1400C8111.62 1261.73 8166.62 1129.17 8264.39 1031.39C8362.17 933.621 8494.73 878.623 8633 878.467ZM8633 800C8514.33 800 8398.33 835.19 8299.66 901.119C8200.99 967.047 8124.08 1060.75 8078.67 1170.39C8033.26 1280.03 8021.38 1400.67 8044.53 1517.05C8067.68 1633.44 8124.82 1740.35 8208.74 1824.26C8292.65 1908.18 8399.56 1965.32 8515.95 1988.47C8632.34 2011.62 8752.97 1999.74 8862.61 1954.33C8972.25 1908.91 9065.95 1832.01 9131.88 1733.34C9197.81 1634.67 9233 1518.67 9233 1400C9233 1240.87 9169.79 1088.26 9057.27 975.736C8944.74 863.214 8792.13 800 8633 800Z" fill="#424447"/>
<path d="M9047.94 1813.99C8935.77 1710.48 8789.23 1652.19 8636.61 1650.36C8483.99 1648.52 8336.1 1703.28 8221.48 1804.07L8169.61 1745.22C8298.77 1631.61 8465.44 1569.86 8637.44 1571.89C8809.45 1573.92 8974.61 1639.58 9101.06 1756.2L9047.94 1813.99Z" fill="#424447"/>
<path d="M8629.16 1143.37C8667.64 1143.37 8705.27 1154.79 8737.27 1176.17C8769.27 1197.55 8794.21 1227.94 8808.94 1263.5C8823.67 1299.06 8827.52 1338.19 8820.02 1375.94C8812.51 1413.68 8793.97 1448.36 8766.76 1475.57C8739.54 1502.79 8704.87 1521.32 8667.12 1528.83C8629.37 1536.34 8590.25 1532.49 8554.69 1517.76C8519.13 1503.03 8488.74 1478.09 8467.35 1446.08C8445.97 1414.08 8434.56 1376.46 8434.56 1337.97C8434.62 1286.38 8455.14 1236.92 8491.62 1200.44C8528.1 1163.96 8577.56 1143.43 8629.16 1143.37ZM8629.16 1064.91C8575.15 1064.91 8522.35 1080.92 8477.45 1110.93C8432.54 1140.93 8397.54 1183.58 8376.88 1233.47C8356.21 1283.37 8350.8 1338.27 8361.34 1391.24C8371.87 1444.21 8397.88 1492.87 8436.07 1531.06C8474.26 1569.25 8522.92 1595.25 8575.88 1605.79C8628.85 1616.33 8683.76 1610.92 8733.66 1590.25C8783.55 1569.58 8826.2 1534.58 8856.2 1489.68C8886.21 1444.77 8902.22 1391.98 8902.22 1337.97C8902.22 1265.55 8873.45 1196.09 8822.24 1144.88C8771.03 1093.67 8701.58 1064.91 8629.16 1064.91Z" fill="#424447"/>
<path d="M8633 878.467C8736.15 878.467 8836.98 909.055 8922.75 966.362C9008.51 1023.67 9075.36 1105.12 9114.83 1200.42C9154.31 1295.72 9164.63 1400.58 9144.51 1501.75C9124.39 1602.91 9074.72 1695.84 9001.78 1768.78C8928.84 1841.72 8835.91 1891.39 8734.75 1911.51C8633.58 1931.63 8528.72 1921.31 8433.42 1881.83C8338.12 1842.36 8256.67 1775.51 8199.36 1689.75C8142.05 1603.98 8111.47 1503.15 8111.47 1400C8111.62 1261.73 8166.62 1129.17 8264.39 1031.39C8362.17 933.621 8494.73 878.623 8633 878.467ZM8633 800C8514.33 800 8398.33 835.19 8299.66 901.119C8200.99 967.047 8124.08 1060.75 8078.67 1170.39C8033.26 1280.03 8021.38 1400.67 8044.53 1517.05C8067.68 1633.44 8124.82 1740.35 8208.74 1824.26C8292.65 1908.18 8399.56 1965.32 8515.95 1988.47C8632.34 2011.62 8752.97 1999.74 8862.61 1954.33C8972.25 1908.91 9065.95 1832.01 9131.88 1733.34C9197.81 1634.67 9233 1518.67 9233 1400C9233 1240.87 9169.79 1088.26 9057.27 975.736C8944.74 863.214 8792.13 800 8633 800Z" fill="#424447"/>
<path d="M9909.62 5460C9834.84 5390.99 9737.15 5352.13 9635.41 5350.9C9533.66 5349.68 9435.07 5386.19 9358.65 5453.38L9324.07 5414.14C9410.18 5338.41 9521.29 5297.24 9635.96 5298.59C9750.63 5299.95 9860.74 5343.72 9945.04 5421.47L9909.62 5460Z" fill="#424447"/>
<path d="M9630.44 5012.92C9656.1 5012.92 9681.18 5020.52 9702.51 5034.78C9723.85 5049.03 9740.48 5069.3 9750.29 5093C9760.11 5116.71 9762.68 5142.79 9757.68 5167.96C9752.67 5193.12 9740.32 5216.24 9722.17 5234.38C9704.03 5252.53 9680.91 5264.88 9655.75 5269.89C9630.58 5274.89 9604.5 5272.32 9580.79 5262.51C9557.09 5252.69 9536.82 5236.06 9522.57 5214.72C9508.31 5193.39 9500.71 5168.31 9500.71 5142.65C9500.75 5108.25 9514.43 5075.28 9538.75 5050.96C9563.07 5026.64 9596.04 5012.96 9630.44 5012.92ZM9630.44 4960.6C9594.43 4960.6 9559.24 4971.28 9529.3 4991.28C9499.36 5011.29 9476.03 5039.72 9462.25 5072.98C9448.47 5106.25 9444.87 5142.85 9451.89 5178.16C9458.92 5213.48 9476.25 5245.91 9501.71 5271.37C9527.17 5296.83 9559.61 5314.17 9594.92 5321.19C9630.24 5328.22 9666.84 5324.61 9700.1 5310.83C9733.37 5297.06 9761.8 5273.72 9781.8 5243.79C9801.8 5213.85 9812.48 5178.65 9812.48 5142.65C9812.48 5094.37 9793.3 5048.06 9759.16 5013.92C9725.02 4979.78 9678.72 4960.6 9630.44 4960.6Z" fill="#424447"/>
<path d="M9633 4836.31C9701.77 4836.31 9768.99 4856.7 9826.17 4894.91C9883.34 4933.11 9927.91 4987.41 9954.22 5050.95C9980.54 5114.48 9987.42 5184.39 9974.01 5251.83C9960.59 5319.28 9927.48 5381.23 9878.85 5429.85C9830.23 5478.48 9768.28 5511.59 9700.83 5525.01C9633.39 5538.42 9563.48 5531.54 9499.94 5505.22C9436.41 5478.91 9382.11 5434.34 9343.91 5377.17C9305.7 5319.99 9285.31 5252.77 9285.31 5184C9285.41 5091.82 9322.08 5003.44 9387.26 4938.26C9452.44 4873.08 9540.82 4836.42 9633 4836.31ZM9633 4784C9553.89 4784 9476.55 4807.46 9410.77 4851.41C9344.99 4895.37 9293.72 4957.84 9263.45 5030.93C9233.17 5104.02 9225.25 5184.44 9240.69 5262.04C9256.12 5339.63 9294.22 5410.9 9350.16 5466.84C9406.1 5522.78 9477.37 5560.88 9554.96 5576.31C9632.56 5591.75 9712.98 5583.83 9786.07 5553.55C9859.16 5523.28 9921.63 5472.01 9965.59 5406.23C10009.5 5340.45 10033 5263.11 10033 5184C10033 5077.91 9990.86 4976.17 9915.84 4901.16C9840.83 4826.14 9739.09 4784 9633 4784Z" fill="#424447"/>
<path d="M5908.62 4660C5833.84 4590.99 5736.15 4552.13 5634.41 4550.9C5532.66 4549.68 5434.07 4586.19 5357.65 4653.38L5323.07 4614.14C5409.18 4538.41 5520.29 4497.24 5634.96 4498.59C5749.63 4499.95 5859.74 4543.72 5944.04 4621.47L5908.62 4660Z" fill="#424447"/>
<path d="M5629.44 4212.92C5655.1 4212.92 5680.18 4220.52 5701.51 4234.78C5722.85 4249.03 5739.48 4269.3 5749.29 4293C5759.11 4316.71 5761.68 4342.79 5756.68 4367.96C5751.67 4393.12 5739.32 4416.24 5721.17 4434.38C5703.03 4452.53 5679.91 4464.88 5654.75 4469.89C5629.58 4474.89 5603.5 4472.32 5579.79 4462.51C5556.09 4452.69 5535.82 4436.06 5521.57 4414.72C5507.31 4393.39 5499.71 4368.31 5499.71 4342.65C5499.75 4308.25 5513.43 4275.28 5537.75 4250.96C5562.07 4226.64 5595.04 4212.96 5629.44 4212.92ZM5629.44 4160.6C5593.43 4160.6 5558.24 4171.28 5528.3 4191.28C5498.36 4211.29 5475.03 4239.72 5461.25 4272.98C5447.47 4306.25 5443.87 4342.85 5450.89 4378.16C5457.92 4413.48 5475.25 4445.91 5500.71 4471.37C5526.17 4496.83 5558.61 4514.17 5593.92 4521.19C5629.24 4528.22 5665.84 4524.61 5699.1 4510.83C5732.37 4497.06 5760.8 4473.72 5780.8 4443.79C5800.8 4413.85 5811.48 4378.65 5811.48 4342.65C5811.48 4294.37 5792.3 4248.06 5758.16 4213.92C5724.02 4179.78 5677.72 4160.6 5629.44 4160.6Z" fill="#424447"/>
<path d="M5632 4036.31C5700.77 4036.31 5767.99 4056.7 5825.17 4094.91C5882.34 4133.11 5926.91 4187.41 5953.22 4250.95C5979.54 4314.48 5986.42 4384.39 5973.01 4451.83C5959.59 4519.28 5926.48 4581.23 5877.85 4629.85C5829.23 4678.48 5767.28 4711.59 5699.83 4725.01C5632.39 4738.42 5562.48 4731.54 5498.94 4705.22C5435.41 4678.91 5381.11 4634.34 5342.91 4577.17C5304.7 4519.99 5284.31 4452.77 5284.31 4384C5284.41 4291.82 5321.08 4203.44 5386.26 4138.26C5451.44 4073.08 5539.82 4036.42 5632 4036.31ZM5632 3984C5552.89 3984 5475.55 4007.46 5409.77 4051.41C5343.99 4095.37 5292.72 4157.84 5262.45 4230.93C5232.17 4304.02 5224.25 4384.44 5239.69 4462.04C5255.12 4539.63 5293.22 4610.9 5349.16 4666.84C5405.1 4722.78 5476.37 4760.88 5553.96 4776.31C5631.56 4791.75 5711.98 4783.83 5785.07 4753.55C5858.16 4723.28 5920.63 4672.01 5964.59 4606.23C6008.54 4540.45 6032 4463.11 6032 4384C6032 4277.91 5989.86 4176.17 5914.84 4101.16C5839.83 4026.14 5738.09 3984 5632 3984Z" fill="#424447"/>
<path d="M11908.6 3108C11833.8 3038.99 11736.2 3000.13 11634.4 2998.9C11532.7 2997.68 11434.1 3034.19 11357.7 3101.38L11323.1 3062.14C11409.2 2986.41 11520.3 2945.24 11635 2946.59C11749.6 2947.95 11859.7 2991.72 11944 3069.47L11908.6 3108Z" fill="#424447"/>
<path d="M11629.4 2660.92C11655.1 2660.92 11680.2 2668.52 11701.5 2682.78C11722.8 2697.03 11739.5 2717.3 11749.3 2741C11759.1 2764.71 11761.7 2790.79 11756.7 2815.96C11751.7 2841.12 11739.3 2864.24 11721.2 2882.38C11703 2900.53 11679.9 2912.88 11654.7 2917.89C11629.6 2922.89 11603.5 2920.32 11579.8 2910.51C11556.1 2900.69 11535.8 2884.06 11521.6 2862.72C11507.3 2841.39 11499.7 2816.31 11499.7 2790.65C11499.7 2756.25 11513.4 2723.28 11537.7 2698.96C11562.1 2674.64 11595 2660.96 11629.4 2660.92ZM11629.4 2608.6C11593.4 2608.6 11558.2 2619.28 11528.3 2639.28C11498.4 2659.29 11475 2687.72 11461.3 2720.98C11447.5 2754.25 11443.9 2790.85 11450.9 2826.16C11457.9 2861.48 11475.3 2893.91 11500.7 2919.37C11526.2 2944.83 11558.6 2962.17 11593.9 2969.19C11629.2 2976.22 11665.8 2972.61 11699.1 2958.83C11732.4 2945.06 11760.8 2921.72 11780.8 2891.79C11800.8 2861.85 11811.5 2826.65 11811.5 2790.65C11811.5 2742.37 11792.3 2696.06 11758.2 2661.92C11724 2627.78 11677.7 2608.6 11629.4 2608.6Z" fill="#424447"/>
<path d="M11632 2484.31C11700.8 2484.31 11768 2504.7 11825.2 2542.91C11882.3 2581.11 11926.9 2635.41 11953.2 2698.95C11979.5 2762.48 11986.4 2832.39 11973 2899.83C11959.6 2967.28 11926.5 3029.23 11877.9 3077.85C11829.2 3126.48 11767.3 3159.59 11699.8 3173.01C11632.4 3186.42 11562.5 3179.54 11498.9 3153.22C11435.4 3126.91 11381.1 3082.34 11342.9 3025.17C11304.7 2967.99 11284.3 2900.77 11284.3 2832C11284.4 2739.82 11321.1 2651.44 11386.3 2586.26C11451.4 2521.08 11539.8 2484.42 11632 2484.31ZM11632 2432C11552.9 2432 11475.6 2455.46 11409.8 2499.41C11344 2543.37 11292.7 2605.84 11262.4 2678.93C11232.2 2752.02 11224.3 2832.44 11239.7 2910.04C11255.1 2987.63 11293.2 3058.9 11349.2 3114.84C11405.1 3170.78 11476.4 3208.88 11554 3224.31C11631.6 3239.75 11712 3231.83 11785.1 3201.55C11858.2 3171.28 11920.6 3120.01 11964.6 3054.23C12008.5 2988.45 12032 2911.11 12032 2832C12032 2725.91 11989.9 2624.17 11914.8 2549.16C11839.8 2474.14 11738.1 2432 11632 2432Z" fill="#424447"/>
<line x1="5893.4" y1="4065.38" x2="8159.4" y2="1803.38" stroke="#424447" stroke-width="30"/>
<line x1="5946.71" y1="4564.25" x2="9235.71" y2="5169.25" stroke="#424447" stroke-width="30"/>
<line x1="9848.35" y1="4898.55" x2="11332.4" y2="3070.55" stroke="#424447" stroke-width="30"/>
<line x1="9041.81" y1="1762.17" x2="11277.8" y2="2702.17" stroke="#424447" stroke-width="30"/>
<line x1="8718.56" y1="1950.41" x2="9439.56" y2="4878.41" stroke="#424447" stroke-width="30"/>
<path d="M13668.6 675.996C13593.8 606.99 13496.2 568.127 13394.4 566.905C13292.7 565.683 13194.1 602.189 13117.7 669.379L13083.1 630.145C13169.2 554.405 13280.3 513.24 13395 514.593C13509.6 515.945 13619.7 559.719 13704 637.469L13668.6 675.996Z" fill="#424447"/>
<path d="M13389.4 228.915C13415.1 228.915 13440.2 236.524 13461.5 250.779C13482.8 265.034 13499.5 285.296 13509.3 309.001C13519.1 332.707 13521.7 358.792 13516.7 383.957C13511.7 409.123 13499.3 432.239 13481.2 450.382C13463 468.526 13439.9 480.882 13414.7 485.888C13389.6 490.893 13363.5 488.324 13339.8 478.505C13316.1 468.686 13295.8 452.058 13281.6 430.723C13267.3 409.389 13259.7 384.306 13259.7 358.648C13259.7 324.253 13273.4 291.28 13297.7 266.959C13322.1 242.638 13355 228.957 13389.4 228.915ZM13389.4 176.604C13353.4 176.604 13318.2 187.28 13288.3 207.284C13258.4 227.287 13235 255.718 13221.3 288.982C13207.5 322.247 13203.9 358.85 13210.9 394.163C13217.9 429.476 13235.3 461.913 13260.7 487.372C13286.2 512.832 13318.6 530.17 13353.9 537.194C13389.2 544.218 13425.8 540.613 13459.1 526.835C13492.4 513.056 13520.8 489.723 13540.8 459.786C13560.8 429.849 13571.5 394.653 13571.5 358.648C13571.5 310.367 13552.3 264.063 13518.2 229.923C13484 195.783 13437.7 176.604 13389.4 176.604Z" fill="#424447"/>
<path d="M13392 52.3115C13460.8 52.3115 13528 72.7032 13585.2 110.908C13642.3 149.112 13686.9 203.414 13713.2 266.945C13739.5 330.477 13746.4 400.386 13733 467.831C13719.6 535.276 13686.5 597.228 13637.9 645.853C13589.2 694.478 13527.3 727.592 13459.8 741.008C13392.4 754.423 13322.5 747.538 13258.9 721.223C13195.4 694.907 13141.1 650.343 13102.9 593.166C13064.7 535.989 13044.3 468.766 13044.3 400C13044.4 307.819 13081.1 219.444 13146.3 154.262C13211.4 89.0804 13299.8 52.4154 13392 52.3115ZM13392 0C13312.9 0 13235.6 23.4599 13169.8 67.4125C13104 111.365 13052.7 173.836 13022.4 246.927C12992.2 320.017 12984.3 400.444 12999.7 478.036C13015.1 555.629 13053.2 626.902 13109.2 682.843C13165.1 738.784 13236.4 776.88 13314 792.314C13391.6 807.748 13472 799.827 13545.1 769.552C13618.2 739.277 13680.6 688.008 13724.6 622.228C13768.5 556.448 13792 479.113 13792 400C13792 293.913 13749.9 192.172 13674.8 117.157C13599.8 42.1428 13498.1 0 13392 0Z" fill="#424447"/>
<path d="M16436.6 1271C16361.8 1201.99 16264.2 1163.13 16162.4 1161.9C16060.7 1160.68 15962.1 1197.19 15885.7 1264.38L15851.1 1225.14C15937.2 1149.41 16048.3 1108.24 16163 1109.59C16277.6 1110.95 16387.7 1154.72 16472 1232.47L16436.6 1271Z" fill="#424447"/>
<path d="M16157.4 823.915C16183.1 823.915 16208.2 831.524 16229.5 845.779C16250.8 860.034 16267.5 880.296 16277.3 904.001C16287.1 927.707 16289.7 953.792 16284.7 978.957C16279.7 1004.12 16267.3 1027.24 16249.2 1045.38C16231 1063.53 16207.9 1075.88 16182.7 1080.89C16157.6 1085.89 16131.5 1083.32 16107.8 1073.51C16084.1 1063.69 16063.8 1047.06 16049.6 1025.72C16035.3 1004.39 16027.7 979.306 16027.7 953.648C16027.7 919.253 16041.4 886.28 16065.7 861.959C16090.1 837.638 16123 823.957 16157.4 823.915ZM16157.4 771.604C16121.4 771.604 16086.2 782.28 16056.3 802.284C16026.4 822.287 16003 850.718 15989.3 883.982C15975.5 917.247 15971.9 953.85 15978.9 989.163C15985.9 1024.48 16003.3 1056.91 16028.7 1082.37C16054.2 1107.83 16086.6 1125.17 16121.9 1132.19C16157.2 1139.22 16193.8 1135.61 16227.1 1121.83C16260.4 1108.06 16288.8 1084.72 16308.8 1054.79C16328.8 1024.85 16339.5 989.653 16339.5 953.648C16339.5 905.367 16320.3 859.063 16286.2 824.923C16252 790.783 16205.7 771.604 16157.4 771.604Z" fill="#424447"/>
<path d="M16160 647.312C16228.8 647.312 16296 667.703 16353.2 705.908C16410.3 744.112 16454.9 798.414 16481.2 861.945C16507.5 925.477 16514.4 995.386 16501 1062.83C16487.6 1130.28 16454.5 1192.23 16405.9 1240.85C16357.2 1289.48 16295.3 1322.59 16227.8 1336.01C16160.4 1349.42 16090.5 1342.54 16026.9 1316.22C15963.4 1289.91 15909.1 1245.34 15870.9 1188.17C15832.7 1130.99 15812.3 1063.77 15812.3 995C15812.4 902.819 15849.1 814.444 15914.3 749.262C15979.4 684.08 16067.8 647.415 16160 647.312ZM16160 595C16080.9 595 16003.6 618.46 15937.8 662.412C15872 706.365 15820.7 768.836 15790.4 841.927C15760.2 915.017 15752.3 995.444 15767.7 1073.04C15783.1 1150.63 15821.2 1221.9 15877.2 1277.84C15933.1 1333.78 16004.4 1371.88 16082 1387.31C16159.6 1402.75 16240 1394.83 16313.1 1364.55C16386.2 1334.28 16448.6 1283.01 16492.6 1217.23C16536.5 1151.45 16560 1074.11 16560 995C16560 888.913 16517.9 787.172 16442.8 712.157C16367.8 637.143 16266.1 595 16160 595Z" fill="#424447"/>
<path d="M15892.6 4660C15817.8 4590.99 15720.2 4552.13 15618.4 4550.9C15516.7 4549.68 15418.1 4586.19 15341.7 4653.38L15307.1 4614.14C15393.2 4538.41 15504.3 4497.24 15619 4498.59C15733.6 4499.95 15843.7 4543.72 15928 4621.47L15892.6 4660Z" fill="#424447"/>
<path d="M15613.4 4212.92C15639.1 4212.92 15664.2 4220.52 15685.5 4234.78C15706.8 4249.03 15723.5 4269.3 15733.3 4293C15743.1 4316.71 15745.7 4342.79 15740.7 4367.96C15735.7 4393.12 15723.3 4416.24 15705.2 4434.38C15687 4452.53 15663.9 4464.88 15638.7 4469.89C15613.6 4474.89 15587.5 4472.32 15563.8 4462.51C15540.1 4452.69 15519.8 4436.06 15505.6 4414.72C15491.3 4393.39 15483.7 4368.31 15483.7 4342.65C15483.7 4308.25 15497.4 4275.28 15521.7 4250.96C15546.1 4226.64 15579 4212.96 15613.4 4212.92ZM15613.4 4160.6C15577.4 4160.6 15542.2 4171.28 15512.3 4191.28C15482.4 4211.29 15459 4239.72 15445.3 4272.98C15431.5 4306.25 15427.9 4342.85 15434.9 4378.16C15441.9 4413.48 15459.3 4445.91 15484.7 4471.37C15510.2 4496.83 15542.6 4514.17 15577.9 4521.19C15613.2 4528.22 15649.8 4524.61 15683.1 4510.83C15716.4 4497.06 15744.8 4473.72 15764.8 4443.79C15784.8 4413.85 15795.5 4378.65 15795.5 4342.65C15795.5 4294.37 15776.3 4248.06 15742.2 4213.92C15708 4179.78 15661.7 4160.6 15613.4 4160.6Z" fill="#424447"/>
<path d="M15616 4036.31C15684.8 4036.31 15752 4056.7 15809.2 4094.91C15866.3 4133.11 15910.9 4187.41 15937.2 4250.95C15963.5 4314.48 15970.4 4384.39 15957 4451.83C15943.6 4519.28 15910.5 4581.23 15861.9 4629.85C15813.2 4678.48 15751.3 4711.59 15683.8 4725.01C15616.4 4738.42 15546.5 4731.54 15482.9 4705.22C15419.4 4678.91 15365.1 4634.34 15326.9 4577.17C15288.7 4519.99 15268.3 4452.77 15268.3 4384C15268.4 4291.82 15305.1 4203.44 15370.3 4138.26C15435.4 4073.08 15523.8 4036.42 15616 4036.31ZM15616 3984C15536.9 3984 15459.6 4007.46 15393.8 4051.41C15328 4095.37 15276.7 4157.84 15246.4 4230.93C15216.2 4304.02 15208.3 4384.44 15223.7 4462.04C15239.1 4539.63 15277.2 4610.9 15333.2 4666.84C15389.1 4722.78 15460.4 4760.88 15538 4776.31C15615.6 4791.75 15696 4783.83 15769.1 4753.55C15842.2 4723.28 15904.6 4672.01 15948.6 4606.23C15992.5 4540.45 16016 4463.11 16016 4384C16016 4277.91 15973.9 4176.17 15898.8 4101.16C15823.8 4026.14 15722.1 3984 15616 3984Z" fill="#424447"/>
<path d="M15245.9 3204.99C15133.8 3101.48 14987.2 3043.19 14834.6 3041.36C14682 3039.52 14534.1 3094.28 14419.5 3195.07L14367.6 3136.22C14496.8 3022.61 14663.4 2960.86 14835.4 2962.89C15007.4 2964.92 15172.6 3030.58 15299.1 3147.2L15245.9 3204.99Z" fill="#424447"/>
<path d="M14827.2 2534.37C14865.6 2534.37 14903.3 2545.79 14935.3 2567.17C14967.3 2588.55 14992.2 2618.94 15006.9 2654.5C15021.7 2690.06 15025.5 2729.19 15018 2766.94C15010.5 2804.68 14992 2839.36 14964.8 2866.57C14937.5 2893.79 14902.9 2912.32 14865.1 2919.83C14827.4 2927.34 14788.2 2923.49 14752.7 2908.76C14717.1 2894.03 14686.7 2869.09 14665.4 2837.08C14644 2805.08 14632.6 2767.46 14632.6 2728.97C14632.6 2677.38 14653.1 2627.92 14689.6 2591.44C14726.1 2554.96 14775.6 2534.43 14827.2 2534.37ZM14827.2 2455.91C14773.1 2455.91 14720.4 2471.92 14675.4 2501.93C14630.5 2531.93 14595.5 2574.58 14574.9 2624.47C14554.2 2674.37 14548.8 2729.27 14559.3 2782.24C14569.9 2835.21 14595.9 2883.87 14634.1 2922.06C14672.3 2960.25 14720.9 2986.25 14773.9 2996.79C14826.9 3007.33 14881.8 3001.92 14931.7 2981.25C14981.6 2960.58 15024.2 2925.58 15054.2 2880.68C15084.2 2835.77 15100.2 2782.98 15100.2 2728.97C15100.2 2656.55 15071.5 2587.09 15020.2 2535.88C14969 2484.67 14899.6 2455.91 14827.2 2455.91Z" fill="#424447"/>
<path d="M14831 2269.47C14934.2 2269.47 15035 2300.05 15120.7 2357.36C15206.5 2414.67 15273.4 2496.12 15312.8 2591.42C15352.3 2686.72 15362.6 2791.58 15342.5 2892.75C15322.4 2993.91 15272.7 3086.84 15199.8 3159.78C15126.8 3232.72 15033.9 3282.39 14932.7 3302.51C14831.6 3322.63 14726.7 3312.31 14631.4 3272.83C14536.1 3233.36 14454.7 3166.51 14397.4 3080.75C14340.1 2994.98 14309.5 2894.15 14309.5 2791C14309.6 2652.73 14364.6 2520.17 14462.4 2422.39C14560.2 2324.62 14692.7 2269.62 14831 2269.47ZM14831 2191C14712.3 2191 14596.3 2226.19 14497.7 2292.12C14399 2358.05 14322.1 2451.75 14276.7 2561.39C14231.3 2671.03 14219.4 2791.67 14242.5 2908.05C14265.7 3024.44 14322.8 3131.35 14406.7 3215.26C14490.6 3299.18 14597.6 3356.32 14713.9 3379.47C14830.3 3402.62 14951 3390.74 15060.6 3345.33C15170.2 3299.91 15264 3223.01 15329.9 3124.34C15395.8 3025.67 15431 2909.67 15431 2791C15431 2631.87 15367.8 2479.26 15255.3 2366.74C15142.7 2254.21 14990.1 2191 14831 2191Z" fill="#424447"/>
<path d="M14644.6 6676C14569.8 6606.99 14472.2 6568.13 14370.4 6566.9C14268.7 6565.68 14170.1 6602.19 14093.7 6669.38L14059.1 6630.14C14145.2 6554.41 14256.3 6513.24 14371 6514.59C14485.6 6515.95 14595.7 6559.72 14680 6637.47L14644.6 6676Z" fill="#424447"/>
<path d="M14365.4 6228.92C14391.1 6228.92 14416.2 6236.52 14437.5 6250.78C14458.8 6265.03 14475.5 6285.3 14485.3 6309C14495.1 6332.71 14497.7 6358.79 14492.7 6383.96C14487.7 6409.12 14475.3 6432.24 14457.2 6450.38C14439 6468.53 14415.9 6480.88 14390.7 6485.89C14365.6 6490.89 14339.5 6488.32 14315.8 6478.51C14292.1 6468.69 14271.8 6452.06 14257.6 6430.72C14243.3 6409.39 14235.7 6384.31 14235.7 6358.65C14235.7 6324.25 14249.4 6291.28 14273.7 6266.96C14298.1 6242.64 14331 6228.96 14365.4 6228.92ZM14365.4 6176.6C14329.4 6176.6 14294.2 6187.28 14264.3 6207.28C14234.4 6227.29 14211 6255.72 14197.3 6288.98C14183.5 6322.25 14179.9 6358.85 14186.9 6394.16C14193.9 6429.48 14211.3 6461.91 14236.7 6487.37C14262.2 6512.83 14294.6 6530.17 14329.9 6537.19C14365.2 6544.22 14401.8 6540.61 14435.1 6526.83C14468.4 6513.06 14496.8 6489.72 14516.8 6459.79C14536.8 6429.85 14547.5 6394.65 14547.5 6358.65C14547.5 6310.37 14528.3 6264.06 14494.2 6229.92C14460 6195.78 14413.7 6176.6 14365.4 6176.6Z" fill="#424447"/>
<path d="M14368 6052.31C14436.8 6052.31 14504 6072.7 14561.2 6110.91C14618.3 6149.11 14662.9 6203.41 14689.2 6266.95C14715.5 6330.48 14722.4 6400.39 14709 6467.83C14695.6 6535.28 14662.5 6597.23 14613.9 6645.85C14565.2 6694.48 14503.3 6727.59 14435.8 6741.01C14368.4 6754.42 14298.5 6747.54 14234.9 6721.22C14171.4 6694.91 14117.1 6650.34 14078.9 6593.17C14040.7 6535.99 14020.3 6468.77 14020.3 6400C14020.4 6307.82 14057.1 6219.44 14122.3 6154.26C14187.4 6089.08 14275.8 6052.42 14368 6052.31ZM14368 6000C14288.9 6000 14211.6 6023.46 14145.8 6067.41C14080 6111.37 14028.7 6173.84 13998.4 6246.93C13968.2 6320.02 13960.3 6400.44 13975.7 6478.04C13991.1 6555.63 14029.2 6626.9 14085.2 6682.84C14141.1 6738.78 14212.4 6776.88 14290 6792.31C14367.6 6807.75 14448 6799.83 14521.1 6769.55C14594.2 6739.28 14656.6 6688.01 14700.6 6622.23C14744.5 6556.45 14768 6479.11 14768 6400C14768 6293.91 14725.9 6192.17 14650.8 6117.16C14575.8 6042.14 14474.1 6000 14368 6000Z" fill="#424447"/>
<path d="M17148.6 6676C17073.8 6606.99 16976.2 6568.13 16874.4 6566.9C16772.7 6565.68 16674.1 6602.19 16597.7 6669.38L16563.1 6630.14C16649.2 6554.41 16760.3 6513.24 16875 6514.59C16989.6 6515.95 17099.7 6559.72 17184 6637.47L17148.6 6676Z" fill="#424447"/>
<path d="M16869.4 6228.92C16895.1 6228.92 16920.2 6236.52 16941.5 6250.78C16962.8 6265.03 16979.5 6285.3 16989.3 6309C16999.1 6332.71 17001.7 6358.79 16996.7 6383.96C16991.7 6409.12 16979.3 6432.24 16961.2 6450.38C16943 6468.53 16919.9 6480.88 16894.7 6485.89C16869.6 6490.89 16843.5 6488.32 16819.8 6478.51C16796.1 6468.69 16775.8 6452.06 16761.6 6430.72C16747.3 6409.39 16739.7 6384.31 16739.7 6358.65C16739.7 6324.25 16753.4 6291.28 16777.7 6266.96C16802.1 6242.64 16835 6228.96 16869.4 6228.92ZM16869.4 6176.6C16833.4 6176.6 16798.2 6187.28 16768.3 6207.28C16738.4 6227.29 16715 6255.72 16701.3 6288.98C16687.5 6322.25 16683.9 6358.85 16690.9 6394.16C16697.9 6429.48 16715.3 6461.91 16740.7 6487.37C16766.2 6512.83 16798.6 6530.17 16833.9 6537.19C16869.2 6544.22 16905.8 6540.61 16939.1 6526.83C16972.4 6513.06 17000.8 6489.72 17020.8 6459.79C17040.8 6429.85 17051.5 6394.65 17051.5 6358.65C17051.5 6310.37 17032.3 6264.06 16998.2 6229.92C16964 6195.78 16917.7 6176.6 16869.4 6176.6Z" fill="#424447"/>
<path d="M16872 6052.31C16940.8 6052.31 17008 6072.7 17065.2 6110.91C17122.3 6149.11 17166.9 6203.41 17193.2 6266.95C17219.5 6330.48 17226.4 6400.39 17213 6467.83C17199.6 6535.28 17166.5 6597.23 17117.9 6645.85C17069.2 6694.48 17007.3 6727.59 16939.8 6741.01C16872.4 6754.42 16802.5 6747.54 16738.9 6721.22C16675.4 6694.91 16621.1 6650.34 16582.9 6593.17C16544.7 6535.99 16524.3 6468.77 16524.3 6400C16524.4 6307.82 16561.1 6219.44 16626.3 6154.26C16691.4 6089.08 16779.8 6052.42 16872 6052.31ZM16872 6000C16792.9 6000 16715.6 6023.46 16649.8 6067.41C16584 6111.37 16532.7 6173.84 16502.4 6246.93C16472.2 6320.02 16464.3 6400.44 16479.7 6478.04C16495.1 6555.63 16533.2 6626.9 16589.2 6682.84C16645.1 6738.78 16716.4 6776.88 16794 6792.31C16871.6 6807.75 16952 6799.83 17025.1 6769.55C17098.2 6739.28 17160.6 6688.01 17204.6 6622.23C17248.5 6556.45 17272 6479.11 17272 6400C17272 6293.91 17229.9 6192.17 17154.8 6117.16C17079.8 6042.14 16978.1 6000 16872 6000Z" fill="#424447"/>
<line x1="12032" y1="2817" x2="14231" y2="2817" stroke="#424447" stroke-width="30"/>
<line x1="15088.3" y1="2310.65" x2="15924.3" y2="1261.65" stroke="#424447" stroke-width="30"/>
<line x1="15713.2" y1="4037.62" x2="16142.2" y2="1369.62" stroke="#424447" stroke-width="30"/>
<line x1="15400.6" y1="4049.72" x2="14821.6" y2="3369.72" stroke="#424447" stroke-width="30"/>
<line x1="14491.7" y1="6055.41" x2="15418.7" y2="4727.41" stroke="#424447" stroke-width="30"/>
<line x1="14768" y1="6385" x2="16472" y2="6385" stroke="#424447" stroke-width="30"/>
<line x1="16674.2" y1="6071.86" x2="15838.2" y2="4711.85" stroke="#424447" stroke-width="30"/>
<line x1="11756" y1="2487" x2="13120" y2="667.004" stroke="#424447" stroke-width="30"/>
<line x1="14667.4" y1="2254.15" x2="13651.4" y2="684.149" stroke="#424447" stroke-width="30"/>
<path d="M3606.94 6772.99C3494.77 6669.48 3348.23 6611.19 3195.61 6609.36C3042.99 6607.52 2895.1 6662.28 2780.48 6763.07L2728.61 6704.22C2857.77 6590.61 3024.44 6528.86 3196.44 6530.89C3368.45 6532.92 3533.61 6598.58 3660.06 6715.2L3606.94 6772.99Z" fill="#424447"/>
<path d="M3188.16 6102.37C3226.64 6102.37 3264.27 6113.79 3296.27 6135.17C3328.27 6156.55 3353.21 6186.94 3367.94 6222.5C3382.67 6258.06 3386.52 6297.19 3379.02 6334.94C3371.51 6372.68 3352.97 6407.36 3325.76 6434.57C3298.54 6461.79 3263.87 6480.32 3226.12 6487.83C3188.37 6495.34 3149.25 6491.49 3113.69 6476.76C3078.13 6462.03 3047.74 6437.09 3026.35 6405.08C3004.97 6373.08 2993.56 6335.46 2993.56 6296.97C2993.62 6245.38 3014.14 6195.92 3050.62 6159.44C3087.1 6122.96 3136.56 6102.43 3188.16 6102.37ZM3188.16 6023.91C3134.15 6023.91 3081.35 6039.92 3036.45 6069.93C2991.54 6099.93 2956.54 6142.58 2935.88 6192.47C2915.21 6242.37 2909.8 6297.27 2920.34 6350.24C2930.87 6403.21 2956.88 6451.87 2995.07 6490.06C3033.26 6528.25 3081.92 6554.25 3134.89 6564.79C3187.85 6575.33 3242.76 6569.92 3292.66 6549.25C3342.55 6528.58 3385.2 6493.58 3415.2 6448.68C3445.21 6403.77 3461.22 6350.98 3461.22 6296.97C3461.22 6224.55 3432.45 6155.09 3381.24 6103.88C3330.03 6052.67 3260.58 6023.91 3188.16 6023.91Z" fill="#424447"/>
<path d="M3192 5837.47C3295.15 5837.47 3395.98 5868.05 3481.75 5925.36C3567.51 5982.67 3634.36 6064.12 3673.83 6159.42C3713.31 6254.72 3723.63 6359.58 3703.51 6460.75C3683.39 6561.91 3633.72 6654.84 3560.78 6727.78C3487.84 6800.72 3394.91 6850.39 3293.75 6870.51C3192.58 6890.63 3087.72 6880.31 2992.42 6840.83C2897.12 6801.36 2815.67 6734.51 2758.36 6648.75C2701.05 6562.98 2670.47 6462.15 2670.47 6359C2670.62 6220.73 2725.62 6088.17 2823.39 5990.39C2921.17 5892.62 3053.73 5837.62 3192 5837.47ZM3192 5759C3073.33 5759 2957.33 5794.19 2858.66 5860.12C2759.99 5926.05 2683.08 6019.75 2637.67 6129.39C2592.26 6239.03 2580.38 6359.67 2603.53 6476.05C2626.68 6592.44 2683.82 6699.35 2767.74 6783.26C2851.65 6867.18 2958.56 6924.32 3074.95 6947.47C3191.34 6970.62 3311.97 6958.74 3421.61 6913.33C3531.25 6867.91 3624.95 6791.01 3690.88 6692.34C3756.81 6593.67 3792 6477.67 3792 6359C3792 6199.87 3728.79 6047.26 3616.27 5934.74C3503.74 5822.21 3351.13 5759 3192 5759Z" fill="#424447"/>
<path d="M8353.62 7328C8278.84 7258.99 8181.15 7220.13 8079.41 7218.9C7977.66 7217.68 7879.07 7254.19 7802.65 7321.38L7768.07 7282.14C7854.18 7206.41 7965.29 7165.24 8079.96 7166.59C8194.63 7167.95 8304.74 7211.72 8389.04 7289.47L8353.62 7328Z" fill="#424447"/>
<path d="M8074.44 6880.92C8100.1 6880.92 8125.18 6888.52 8146.51 6902.78C8167.85 6917.03 8184.48 6937.3 8194.29 6961C8204.11 6984.71 8206.68 7010.79 8201.68 7035.96C8196.67 7061.12 8184.32 7084.24 8166.17 7102.38C8148.03 7120.53 8124.91 7132.88 8099.75 7137.89C8074.58 7142.89 8048.5 7140.32 8024.79 7130.51C8001.09 7120.69 7980.82 7104.06 7966.57 7082.72C7952.31 7061.39 7944.71 7036.31 7944.71 7010.65C7944.75 6976.25 7958.43 6943.28 7982.75 6918.96C8007.07 6894.64 8040.04 6880.96 8074.44 6880.92ZM8074.44 6828.6C8038.43 6828.6 8003.24 6839.28 7973.3 6859.28C7943.36 6879.29 7920.03 6907.72 7906.25 6940.98C7892.47 6974.25 7888.87 7010.85 7895.89 7046.16C7902.92 7081.48 7920.25 7113.91 7945.71 7139.37C7971.17 7164.83 8003.61 7182.17 8038.92 7189.19C8074.24 7196.22 8110.84 7192.61 8144.1 7178.83C8177.37 7165.06 8205.8 7141.72 8225.8 7111.79C8245.8 7081.85 8256.48 7046.65 8256.48 7010.65C8256.48 6962.37 8237.3 6916.06 8203.16 6881.92C8169.02 6847.78 8122.72 6828.6 8074.44 6828.6Z" fill="#424447"/>
<path d="M8077 6704.31C8145.77 6704.31 8212.99 6724.7 8270.17 6762.91C8327.34 6801.11 8371.91 6855.41 8398.22 6918.95C8424.54 6982.48 8431.42 7052.39 8418.01 7119.83C8404.59 7187.28 8371.48 7249.23 8322.85 7297.85C8274.23 7346.48 8212.28 7379.59 8144.83 7393.01C8077.39 7406.42 8007.48 7399.54 7943.94 7373.22C7880.41 7346.91 7826.11 7302.34 7787.91 7245.17C7749.7 7187.99 7729.31 7120.77 7729.31 7052C7729.41 6959.82 7766.08 6871.44 7831.26 6806.26C7896.44 6741.08 7984.82 6704.42 8077 6704.31ZM8077 6652C7997.89 6652 7920.55 6675.46 7854.77 6719.41C7788.99 6763.37 7737.72 6825.84 7707.45 6898.93C7677.17 6972.02 7669.25 7052.44 7684.69 7130.04C7700.12 7207.63 7738.22 7278.9 7794.16 7334.84C7850.1 7390.78 7921.37 7428.88 7998.96 7444.31C8076.56 7459.75 8156.98 7451.83 8230.07 7421.55C8303.16 7391.28 8365.63 7340.01 8409.59 7274.23C8453.54 7208.45 8477 7131.11 8477 7052C8477 6945.91 8434.86 6844.17 8359.84 6769.16C8284.83 6694.14 8183.09 6652 8077 6652Z" fill="#424447"/>
<path d="M4260.62 1028C4185.84 958.99 4088.15 920.127 3986.41 918.905C3884.66 917.683 3786.07 954.189 3709.65 1021.38L3675.07 982.145C3761.18 906.405 3872.29 865.24 3986.96 866.593C4101.63 867.945 4211.74 911.719 4296.04 989.469L4260.62 1028Z" fill="#424447"/>
<path d="M3981.44 580.915C4007.1 580.915 4032.18 588.524 4053.51 602.779C4074.85 617.034 4091.48 637.296 4101.29 661.001C4111.11 684.707 4113.68 710.792 4108.68 735.957C4103.67 761.123 4091.32 784.239 4073.17 802.382C4055.03 820.526 4031.91 832.882 4006.75 837.888C3981.58 842.893 3955.5 840.324 3931.79 830.505C3908.09 820.686 3887.82 804.058 3873.57 782.723C3859.31 761.389 3851.71 736.306 3851.71 710.648C3851.75 676.253 3865.43 643.28 3889.75 618.959C3914.07 594.638 3947.04 580.957 3981.44 580.915ZM3981.44 528.604C3945.43 528.604 3910.24 539.28 3880.3 559.284C3850.36 579.287 3827.03 607.718 3813.25 640.982C3799.47 674.247 3795.87 710.85 3802.89 746.163C3809.92 781.476 3827.25 813.913 3852.71 839.372C3878.17 864.832 3910.61 882.17 3945.92 889.194C3981.24 896.218 4017.84 892.613 4051.1 878.835C4084.37 865.056 4112.8 841.723 4132.8 811.786C4152.8 781.849 4163.48 746.653 4163.48 710.648C4163.48 662.367 4144.3 616.063 4110.16 581.923C4076.02 547.783 4029.72 528.604 3981.44 528.604Z" fill="#424447"/>
<path d="M3984 404.312C4052.77 404.312 4119.99 424.703 4177.17 462.908C4234.34 501.112 4278.91 555.414 4305.22 618.945C4331.54 682.477 4338.42 752.386 4325.01 819.831C4311.59 887.276 4278.48 949.228 4229.85 997.853C4181.23 1046.48 4119.28 1079.59 4051.83 1093.01C3984.39 1106.42 3914.48 1099.54 3850.94 1073.22C3787.41 1046.91 3733.11 1002.34 3694.91 945.166C3656.7 887.989 3636.31 820.766 3636.31 752C3636.41 659.819 3673.08 571.444 3738.26 506.262C3803.44 441.08 3891.82 404.415 3984 404.312ZM3984 352C3904.89 352 3827.55 375.46 3761.77 419.412C3695.99 463.365 3644.72 525.836 3614.45 598.927C3584.17 672.017 3576.25 752.444 3591.69 830.036C3607.12 907.629 3645.22 978.902 3701.16 1034.84C3757.1 1090.78 3828.37 1128.88 3905.96 1144.31C3983.56 1159.75 4063.98 1151.83 4137.07 1121.55C4210.16 1091.28 4272.63 1040.01 4316.59 974.228C4360.54 908.448 4384 831.113 4384 752C4384 645.913 4341.86 544.172 4266.84 469.157C4191.83 394.143 4090.09 352 3984 352Z" fill="#424447"/>
<path d="M1540.62 2276C1465.84 2206.99 1368.15 2168.13 1266.41 2166.9C1164.66 2165.68 1066.07 2202.19 989.653 2269.38L955.074 2230.14C1041.18 2154.41 1152.29 2113.24 1266.96 2114.59C1381.63 2115.95 1491.74 2159.72 1576.04 2237.47L1540.62 2276Z" fill="#424447"/>
<path d="M1261.44 1828.92C1287.1 1828.92 1312.18 1836.52 1333.51 1850.78C1354.85 1865.03 1371.48 1885.3 1381.29 1909C1391.11 1932.71 1393.68 1958.79 1388.68 1983.96C1383.67 2009.12 1371.32 2032.24 1353.17 2050.38C1335.03 2068.53 1311.91 2080.88 1286.75 2085.89C1261.58 2090.89 1235.5 2088.32 1211.79 2078.51C1188.09 2068.69 1167.82 2052.06 1153.57 2030.72C1139.31 2009.39 1131.71 1984.31 1131.71 1958.65C1131.75 1924.25 1145.43 1891.28 1169.75 1866.96C1194.07 1842.64 1227.04 1828.96 1261.44 1828.92ZM1261.44 1776.6C1225.43 1776.6 1190.24 1787.28 1160.3 1807.28C1130.36 1827.29 1107.03 1855.72 1093.25 1888.98C1079.47 1922.25 1075.87 1958.85 1082.89 1994.16C1089.92 2029.48 1107.25 2061.91 1132.71 2087.37C1158.17 2112.83 1190.61 2130.17 1225.92 2137.19C1261.24 2144.22 1297.84 2140.61 1331.1 2126.83C1364.37 2113.06 1392.8 2089.72 1412.8 2059.79C1432.8 2029.85 1443.48 1994.65 1443.48 1958.65C1443.48 1910.37 1424.3 1864.06 1390.16 1829.92C1356.02 1795.78 1309.72 1776.6 1261.44 1776.6Z" fill="#424447"/>
<path d="M1264 1652.31C1332.77 1652.31 1399.99 1672.7 1457.17 1710.91C1514.34 1749.11 1558.91 1803.41 1585.22 1866.95C1611.54 1930.48 1618.42 2000.39 1605.01 2067.83C1591.59 2135.28 1558.48 2197.23 1509.85 2245.85C1461.23 2294.48 1399.28 2327.59 1331.83 2341.01C1264.39 2354.42 1194.48 2347.54 1130.94 2321.22C1067.41 2294.91 1013.11 2250.34 974.908 2193.17C936.703 2135.99 916.311 2068.77 916.311 2000C916.415 1907.82 953.08 1819.44 1018.26 1754.26C1083.44 1689.08 1171.82 1652.42 1264 1652.31ZM1264 1600C1184.89 1600 1107.55 1623.46 1041.77 1667.41C975.992 1711.37 924.723 1773.84 894.448 1846.93C864.173 1920.02 856.252 2000.44 871.686 2078.04C887.12 2155.63 925.217 2226.9 981.158 2282.84C1037.1 2338.78 1108.37 2376.88 1185.96 2392.31C1263.56 2407.75 1343.98 2399.83 1417.07 2369.55C1490.16 2339.28 1552.63 2288.01 1596.59 2222.23C1640.54 2156.45 1664 2079.11 1664 2000C1664 1893.91 1621.86 1792.17 1546.84 1717.16C1471.83 1642.14 1370.09 1600 1264 1600Z" fill="#424447"/>
<path d="M676.624 5252C601.844 5182.99 504.155 5144.13 402.408 5142.9C300.662 5141.68 202.069 5178.19 125.653 5245.38L91.0742 5206.14C177.183 5130.41 288.291 5089.24 402.962 5090.59C517.633 5091.95 627.74 5135.72 712.039 5213.47L676.624 5252Z" fill="#424447"/>
<path d="M397.437 4804.92C423.096 4804.92 448.178 4812.52 469.512 4826.78C490.847 4841.03 507.475 4861.3 517.295 4885C527.114 4908.71 529.682 4934.79 524.676 4959.96C519.671 4985.12 507.315 5008.24 489.172 5026.38C471.029 5044.53 447.912 5056.88 422.747 5061.89C397.581 5066.89 371.497 5064.32 347.791 5054.51C324.086 5044.69 303.824 5028.06 289.568 5006.72C275.313 4985.39 267.705 4960.31 267.705 4934.65C267.747 4900.25 281.427 4867.28 305.748 4842.96C330.069 4818.64 363.042 4804.96 397.437 4804.92ZM397.437 4752.6C361.432 4752.6 326.236 4763.28 296.299 4783.28C266.362 4803.29 243.029 4831.72 229.251 4864.98C215.472 4898.25 211.867 4934.85 218.892 4970.16C225.916 5005.48 243.253 5037.91 268.713 5063.37C294.172 5088.83 326.61 5106.17 361.923 5113.19C397.236 5120.22 433.839 5116.61 467.103 5102.83C500.367 5089.06 528.798 5065.72 548.802 5035.79C568.805 5005.85 579.482 4970.65 579.482 4934.65C579.482 4886.37 560.301 4840.06 526.161 4805.92C492.021 4771.78 445.718 4752.6 397.437 4752.6Z" fill="#424447"/>
<path d="M400 4628.31C468.767 4628.31 535.988 4648.7 593.166 4686.91C650.343 4725.11 694.907 4779.41 721.222 4842.95C747.538 4906.48 754.423 4976.39 741.007 5043.83C727.591 5111.28 694.477 5173.23 645.852 5221.85C597.227 5270.48 535.276 5303.59 467.831 5317.01C400.386 5330.42 330.477 5323.54 266.945 5297.22C203.413 5270.91 149.112 5226.34 110.908 5169.17C72.7031 5111.99 52.311 5044.77 52.311 4976C52.4148 4883.82 89.0798 4795.44 154.262 4730.26C219.443 4665.08 307.819 4628.42 400 4628.31ZM400 4576C320.888 4576 243.552 4599.46 177.772 4643.41C111.992 4687.37 60.723 4749.84 30.448 4822.93C0.172919 4896.02 -7.74788 4976.44 7.68621 5054.04C23.1203 5131.63 61.2166 5202.9 117.158 5258.84C173.099 5314.78 244.372 5352.88 321.964 5368.31C399.556 5383.75 479.983 5375.83 553.073 5345.55C626.163 5315.28 688.635 5264.01 732.587 5198.23C776.54 5132.45 799.999 5055.11 799.999 4976C799.999 4869.91 757.857 4768.17 682.843 4693.16C607.828 4618.14 506.087 4576 400 4576Z" fill="#424447"/>
<path d="M2308.62 9060C2233.84 8990.99 2136.15 8952.13 2034.41 8950.9C1932.66 8949.68 1834.07 8986.19 1757.65 9053.38L1723.07 9014.14C1809.18 8938.41 1920.29 8897.24 2034.96 8898.59C2149.63 8899.95 2259.74 8943.72 2344.04 9021.47L2308.62 9060Z" fill="#424447"/>
<path d="M2029.44 8612.92C2055.1 8612.92 2080.18 8620.52 2101.51 8634.78C2122.85 8649.03 2139.48 8669.3 2149.29 8693C2159.11 8716.71 2161.68 8742.79 2156.68 8767.96C2151.67 8793.12 2139.32 8816.24 2121.17 8834.38C2103.03 8852.53 2079.91 8864.88 2054.75 8869.89C2029.58 8874.89 2003.5 8872.32 1979.79 8862.51C1956.09 8852.69 1935.82 8836.06 1921.57 8814.72C1907.31 8793.39 1899.71 8768.31 1899.71 8742.65C1899.75 8708.25 1913.43 8675.28 1937.75 8650.96C1962.07 8626.64 1995.04 8612.96 2029.44 8612.92ZM2029.44 8560.6C1993.43 8560.6 1958.24 8571.28 1928.3 8591.28C1898.36 8611.29 1875.03 8639.72 1861.25 8672.98C1847.47 8706.25 1843.87 8742.85 1850.89 8778.16C1857.92 8813.48 1875.25 8845.91 1900.71 8871.37C1926.17 8896.83 1958.61 8914.17 1993.92 8921.19C2029.24 8928.22 2065.84 8924.61 2099.1 8910.83C2132.37 8897.06 2160.8 8873.72 2180.8 8843.79C2200.8 8813.85 2211.48 8778.65 2211.48 8742.65C2211.48 8694.37 2192.3 8648.06 2158.16 8613.92C2124.02 8579.78 2077.72 8560.6 2029.44 8560.6Z" fill="#424447"/>
<path d="M2032 8436.31C2100.77 8436.31 2167.99 8456.7 2225.17 8494.91C2282.34 8533.11 2326.91 8587.41 2353.22 8650.95C2379.54 8714.48 2386.42 8784.39 2373.01 8851.83C2359.59 8919.28 2326.48 8981.23 2277.85 9029.85C2229.23 9078.48 2167.28 9111.59 2099.83 9125.01C2032.39 9138.42 1962.48 9131.54 1898.94 9105.22C1835.41 9078.91 1781.11 9034.34 1742.91 8977.17C1704.7 8919.99 1684.31 8852.77 1684.31 8784C1684.41 8691.82 1721.08 8603.44 1786.26 8538.26C1851.44 8473.08 1939.82 8436.42 2032 8436.31ZM2032 8384C1952.89 8384 1875.55 8407.46 1809.77 8451.41C1743.99 8495.37 1692.72 8557.84 1662.45 8630.93C1632.17 8704.02 1624.25 8784.44 1639.69 8862.04C1655.12 8939.63 1693.22 9010.9 1749.16 9066.84C1805.1 9122.78 1876.37 9160.88 1953.96 9176.31C2031.56 9191.75 2111.98 9183.83 2185.07 9153.55C2258.16 9123.28 2320.63 9072.01 2364.59 9006.23C2408.54 8940.45 2432 8863.11 2432 8784C2432 8677.91 2389.86 8576.17 2314.84 8501.16C2239.83 8426.14 2138.09 8384 2032 8384Z" fill="#424447"/>
<line x1="9988.11" y1="5310.57" x2="14012" y2="6455.74" stroke="#424447" stroke-width="30"/>
<line x1="3750.15" y1="6344.15" x2="7714.07" y2="6917.72" stroke="#424447" stroke-width="30"/>
<line x1="3526.89" y1="5908.08" x2="5284.89" y2="4564.08" stroke="#424447" stroke-width="30"/>
<line x1="2138.27" y1="8449.95" x2="2850.27" y2="6833.95" stroke="#424447" stroke-width="30"/>
<line x1="766.246" y1="4897.1" x2="5250.25" y2="4369.1" stroke="#424447" stroke-width="30"/>
<line x1="5745.76" y1="4732.61" x2="8013.76" y2="6676.61" stroke="#424447" stroke-width="30"/>
<line x1="1030.48" y1="2323.91" x2="411.481" y2="4615.91" stroke="#424447" stroke-width="30"/>
<line x1="1529.7" y1="1763.39" x2="3603.7" y2="804.385" stroke="#424447" stroke-width="30"/>
<line x1="1555.37" y1="2232.42" x2="5453.37" y2="4062.42" stroke="#424447" stroke-width="30"/>
<line x1="4269.63" y1="1021.73" x2="5642.63" y2="4005.73" stroke="#424447" stroke-width="30"/>
<line x1="4349.99" y1="825.132" x2="8077.99" y2="1323.13" stroke="#424447" stroke-width="30"/>
<line x1="2425.49" y1="8729.49" x2="9318.27" y2="5410.11" stroke="#424447" stroke-width="30"/>
</svg>
